<svg width="246" height="75" viewBox="0 0 246 75" fill="none" xmlns="http://www.w3.org/2000/svg">
<path d="M15.625 30.3125H7.40625L5.84375 35H0.859375L9.32812 12.25H13.6719L22.1875 35H17.2031L15.625 30.3125ZM8.67188 26.5156H14.3594L11.5 18L8.67188 26.5156ZM27.4219 18.0938L27.5625 20.0469C28.7708 18.5365 30.3906 17.7812 32.4219 17.7812C34.2135 17.7812 35.5469 18.3073 36.4219 19.3594C37.2969 20.4115 37.7448 21.9844 37.7656 24.0781V35H33.25V24.1875C33.25 23.2292 33.0417 22.5365 32.625 22.1094C32.2083 21.6719 31.5156 21.4531 30.5469 21.4531C29.276 21.4531 28.3229 21.9948 27.6875 23.0781V35H23.1719V18.0938H27.4219ZM46.6094 13.9375V18.0938H49.5V21.4062H46.6094V29.8438C46.6094 30.4688 46.7292 30.9167 46.9688 31.1875C47.2083 31.4583 47.6667 31.5938 48.3438 31.5938C48.8438 31.5938 49.2865 31.5573 49.6719 31.4844V34.9062C48.7865 35.1771 47.875 35.3125 46.9375 35.3125C43.7708 35.3125 42.1562 33.7135 42.0938 30.5156V21.4062H39.625V18.0938H42.0938V13.9375H46.6094ZM50.8438 26.3906C50.8438 24.7135 51.1667 23.2188 51.8125 21.9062C52.4583 20.5938 53.3854 19.5781 54.5938 18.8594C55.8125 18.1406 57.224 17.7812 58.8281 17.7812C61.1094 17.7812 62.9688 18.4792 64.4062 19.875C65.8542 21.2708 66.6615 23.1667 66.8281 25.5625L66.8594 26.7188C66.8594 29.3125 66.1354 31.3958 64.6875 32.9688C63.2396 34.5312 61.2969 35.3125 58.8594 35.3125C56.4219 35.3125 54.474 34.5312 53.0156 32.9688C51.5677 31.4062 50.8438 29.2812 50.8438 26.5938V26.3906ZM55.3594 26.7188C55.3594 28.3229 55.6615 29.5521 56.2656 30.4062C56.8698 31.25 57.7344 31.6719 58.8594 31.6719C59.9531 31.6719 60.8073 31.2552 61.4219 30.4219C62.0365 29.5781 62.3438 28.2344 62.3438 26.3906C62.3438 24.8177 62.0365 23.599 61.4219 22.7344C60.8073 21.8698 59.9427 21.4375 58.8281 21.4375C57.724 21.4375 56.8698 21.8698 56.2656 22.7344C55.6615 23.5885 55.3594 24.9167 55.3594 26.7188ZM73.7969 18.0938L73.9375 20.0469C75.1458 18.5365 76.7656 17.7812 78.7969 17.7812C80.5885 17.7812 81.9219 18.3073 82.7969 19.3594C83.6719 20.4115 84.1198 21.9844 84.1406 24.0781V35H79.625V24.1875C79.625 23.2292 79.4167 22.5365 79 22.1094C78.5833 21.6719 77.8906 21.4531 76.9219 21.4531C75.651 21.4531 74.6979 21.9948 74.0625 23.0781V35H69.5469V18.0938H73.7969ZM92.3438 35H87.8125V18.0938H92.3438V35ZM87.5469 13.7188C87.5469 13.0417 87.7708 12.4844 88.2188 12.0469C88.6771 11.6094 89.2969 11.3906 90.0781 11.3906C90.849 11.3906 91.4635 11.6094 91.9219 12.0469C92.3802 12.4844 92.6094 13.0417 92.6094 13.7188C92.6094 14.4062 92.375 14.9688 91.9062 15.4062C91.4479 15.8438 90.8385 16.0625 90.0781 16.0625C89.3177 16.0625 88.7031 15.8438 88.2344 15.4062C87.776 14.9688 87.5469 14.4062 87.5469 13.7188ZM95.375 26.3906C95.375 24.7135 95.6979 23.2188 96.3438 21.9062C96.9896 20.5938 97.9167 19.5781 99.125 18.8594C100.344 18.1406 101.755 17.7812 103.359 17.7812C105.641 17.7812 107.5 18.4792 108.938 19.875C110.385 21.2708 111.193 23.1667 111.359 25.5625L111.391 26.7188C111.391 29.3125 110.667 31.3958 109.219 32.9688C107.771 34.5312 105.828 35.3125 103.391 35.3125C100.953 35.3125 99.0052 34.5312 97.5469 32.9688C96.099 31.4062 95.375 29.2812 95.375 26.5938V26.3906ZM99.8906 26.7188C99.8906 28.3229 100.193 29.5521 100.797 30.4062C101.401 31.25 102.266 31.6719 103.391 31.6719C104.484 31.6719 105.339 31.2552 105.953 30.4219C106.568 29.5781 106.875 28.2344 106.875 26.3906C106.875 24.8177 106.568 23.599 105.953 22.7344C105.339 21.8698 104.474 21.4375 103.359 21.4375C102.255 21.4375 101.401 21.8698 100.797 22.7344C100.193 23.5885 99.8906 24.9167 99.8906 26.7188ZM122.438 35V12.25H129.438C131.438 12.25 133.224 12.7031 134.797 13.6094C136.38 14.5052 137.615 15.7865 138.5 17.4531C139.385 19.1094 139.828 20.9948 139.828 23.1094V24.1562C139.828 26.2708 139.391 28.151 138.516 29.7969C137.651 31.4427 136.427 32.7188 134.844 33.625C133.26 34.5312 131.474 34.9896 129.484 35H122.438ZM127.125 16.0469V31.2344H129.391C131.224 31.2344 132.625 30.6354 133.594 29.4375C134.562 28.2396 135.057 26.526 135.078 24.2969V23.0938C135.078 20.7812 134.599 19.0312 133.641 17.8438C132.682 16.6458 131.281 16.0469 129.438 16.0469H127.125ZM150.734 35.3125C148.255 35.3125 146.234 34.5521 144.672 33.0312C143.12 31.5104 142.344 29.4844 142.344 26.9531V26.5156C142.344 24.8177 142.672 23.3021 143.328 21.9688C143.984 20.625 144.911 19.5938 146.109 18.875C147.318 18.1458 148.693 17.7812 150.234 17.7812C152.547 17.7812 154.365 18.5104 155.688 19.9688C157.021 21.4271 157.688 23.4948 157.688 26.1719V28.0156H146.922C147.068 29.1198 147.505 30.0052 148.234 30.6719C148.974 31.3385 149.906 31.6719 151.031 31.6719C152.771 31.6719 154.13 31.0417 155.109 29.7812L157.328 32.2656C156.651 33.224 155.734 33.974 154.578 34.5156C153.422 35.0469 152.141 35.3125 150.734 35.3125ZM150.219 21.4375C149.323 21.4375 148.594 21.7396 148.031 22.3438C147.479 22.9479 147.125 23.8125 146.969 24.9375H153.25V24.5781C153.229 23.5781 152.958 22.8073 152.438 22.2656C151.917 21.7135 151.177 21.4375 150.219 21.4375ZM167.297 31.6719C168.13 31.6719 168.807 31.4427 169.328 30.9844C169.849 30.526 170.12 29.9167 170.141 29.1562H174.375C174.365 30.3021 174.052 31.3542 173.438 32.3125C172.823 33.2604 171.979 34 170.906 34.5312C169.844 35.0521 168.667 35.3125 167.375 35.3125C164.958 35.3125 163.052 34.5469 161.656 33.0156C160.26 31.474 159.562 29.349 159.562 26.6406V26.3438C159.562 23.7396 160.255 21.6615 161.641 20.1094C163.026 18.5573 164.927 17.7812 167.344 17.7812C169.458 17.7812 171.151 18.3854 172.422 19.5938C173.703 20.7917 174.354 22.3906 174.375 24.3906H170.141C170.12 23.5156 169.849 22.8073 169.328 22.2656C168.807 21.7135 168.12 21.4375 167.266 21.4375C166.214 21.4375 165.417 21.8229 164.875 22.5938C164.344 23.3542 164.078 24.5938 164.078 26.3125V26.7812C164.078 28.5208 164.344 29.7708 164.875 30.5312C165.406 31.2917 166.214 31.6719 167.297 31.6719ZM186.75 35C186.542 34.5938 186.391 34.0885 186.297 33.4844C185.203 34.7031 183.781 35.3125 182.031 35.3125C180.375 35.3125 179 34.8333 177.906 33.875C176.823 32.9167 176.281 31.7083 176.281 30.25C176.281 28.4583 176.943 27.0833 178.266 26.125C179.599 25.1667 181.521 24.6823 184.031 24.6719H186.109V23.7031C186.109 22.9219 185.906 22.2969 185.5 21.8281C185.104 21.3594 184.474 21.125 183.609 21.125C182.849 21.125 182.25 21.3073 181.812 21.6719C181.385 22.0365 181.172 22.5365 181.172 23.1719H176.656C176.656 22.1927 176.958 21.2865 177.562 20.4531C178.167 19.6198 179.021 18.9688 180.125 18.5C181.229 18.0208 182.469 17.7812 183.844 17.7812C185.927 17.7812 187.578 18.3073 188.797 19.3594C190.026 20.401 190.641 21.8698 190.641 23.7656V31.0938C190.651 32.6979 190.875 33.9115 191.312 34.7344V35H186.75ZM183.016 31.8594C183.682 31.8594 184.297 31.7135 184.859 31.4219C185.422 31.1198 185.839 30.7188 186.109 30.2188V27.3125H184.422C182.161 27.3125 180.958 28.0938 180.812 29.6562L180.797 29.9219C180.797 30.4844 180.995 30.9479 181.391 31.3125C181.786 31.6771 182.328 31.8594 183.016 31.8594ZM198.266 18.0938L198.406 20.0469C199.615 18.5365 201.234 17.7812 203.266 17.7812C205.057 17.7812 206.391 18.3073 207.266 19.3594C208.141 20.4115 208.589 21.9844 208.609 24.0781V35H204.094V24.1875C204.094 23.2292 203.885 22.5365 203.469 22.1094C203.052 21.6719 202.359 21.4531 201.391 21.4531C200.12 21.4531 199.167 21.9948 198.531 23.0781V35H194.016V18.0938H198.266ZM216.812 35H212.281V18.0938H216.812V35ZM212.016 13.7188C212.016 13.0417 212.24 12.4844 212.688 12.0469C213.146 11.6094 213.766 11.3906 214.547 11.3906C215.318 11.3906 215.932 11.6094 216.391 12.0469C216.849 12.4844 217.078 13.0417 217.078 13.7188C217.078 14.4062 216.844 14.9688 216.375 15.4062C215.917 15.8438 215.307 16.0625 214.547 16.0625C213.786 16.0625 213.172 15.8438 212.703 15.4062C212.245 14.9688 212.016 14.4062 212.016 13.7188ZM224.703 18.0938L224.844 20.0469C226.052 18.5365 227.672 17.7812 229.703 17.7812C231.495 17.7812 232.828 18.3073 233.703 19.3594C234.578 20.4115 235.026 21.9844 235.047 24.0781V35H230.531V24.1875C230.531 23.2292 230.323 22.5365 229.906 22.1094C229.49 21.6719 228.797 21.4531 227.828 21.4531C226.557 21.4531 225.604 21.9948 224.969 23.0781V35H220.453V18.0938H224.703ZM243.25 35H238.719V18.0938H243.25V35ZM238.453 13.7188C238.453 13.0417 238.677 12.4844 239.125 12.0469C239.583 11.6094 240.203 11.3906 240.984 11.3906C241.755 11.3906 242.37 11.6094 242.828 12.0469C243.286 12.4844 243.516 13.0417 243.516 13.7188C243.516 14.4062 243.281 14.9688 242.812 15.4062C242.354 15.8438 241.745 16.0625 240.984 16.0625C240.224 16.0625 239.609 15.8438 239.141 15.4062C238.682 14.9688 238.453 14.4062 238.453 13.7188Z" fill="#219FE7"/>
<path d="M44.3574 60.1895H38.7324V66H35.8027V51.7812H45.0605V54.1543H38.7324V57.8262H44.3574V60.1895ZM52.6875 64.9258C51.9909 65.7721 51.0273 66.1953 49.7969 66.1953C48.6641 66.1953 47.7982 65.8698 47.1992 65.2188C46.6068 64.5677 46.304 63.6139 46.291 62.3574V55.4336H49.1133V62.2598C49.1133 63.36 49.6146 63.9102 50.6172 63.9102C51.5742 63.9102 52.2318 63.5781 52.5898 62.9141V55.4336H55.4219V66H52.7656L52.6875 64.9258ZM60.5293 66H57.6973V51H60.5293V66ZM65.8418 66H63.0098V51H65.8418V66ZM73.8984 63.0801C73.8984 62.735 73.7259 62.4648 73.3809 62.2695C73.0423 62.0677 72.4954 61.8887 71.7402 61.7324C69.2272 61.2051 67.9707 60.1374 67.9707 58.5293C67.9707 57.5918 68.3581 56.8105 69.1328 56.1855C69.9141 55.554 70.9329 55.2383 72.1895 55.2383C73.5306 55.2383 74.6016 55.554 75.4023 56.1855C76.2096 56.8171 76.6133 57.6374 76.6133 58.6465H73.791C73.791 58.2428 73.6608 57.9108 73.4004 57.6504C73.14 57.3835 72.7331 57.25 72.1797 57.25C71.7044 57.25 71.3366 57.3574 71.0762 57.5723C70.8158 57.7871 70.6855 58.0605 70.6855 58.3926C70.6855 58.7051 70.832 58.959 71.125 59.1543C71.4245 59.3431 71.9258 59.5091 72.6289 59.6523C73.332 59.7891 73.9245 59.9453 74.4062 60.1211C75.8971 60.668 76.6426 61.6152 76.6426 62.9629C76.6426 63.9264 76.2292 64.7077 75.4023 65.3066C74.5755 65.8991 73.5078 66.1953 72.1992 66.1953C71.3138 66.1953 70.526 66.0391 69.8359 65.7266C69.1523 65.4076 68.6152 64.9746 68.2246 64.4277C67.834 63.8743 67.6387 63.2786 67.6387 62.6406H70.3145C70.3405 63.1419 70.526 63.526 70.8711 63.793C71.2161 64.0599 71.6784 64.1934 72.2578 64.1934C72.7982 64.1934 73.2051 64.0924 73.4785 63.8906C73.7585 63.6823 73.8984 63.4121 73.8984 63.0801ZM81.8477 52.8359V55.4336H83.6543V57.5039H81.8477V62.7773C81.8477 63.168 81.9225 63.4479 82.0723 63.6172C82.222 63.7865 82.5085 63.8711 82.9316 63.8711C83.2441 63.8711 83.5208 63.8483 83.7617 63.8027V65.9414C83.2083 66.1107 82.6387 66.1953 82.0527 66.1953C80.0736 66.1953 79.0645 65.196 79.0254 63.1973V57.5039H77.4824V55.4336H79.0254V52.8359H81.8477ZM91.3496 66C91.2194 65.7461 91.125 65.4303 91.0664 65.0527C90.3828 65.8145 89.4941 66.1953 88.4004 66.1953C87.3652 66.1953 86.5059 65.8958 85.8223 65.2969C85.1452 64.6979 84.8066 63.9427 84.8066 63.0312C84.8066 61.9115 85.2201 61.0521 86.0469 60.4531C86.8802 59.8542 88.0814 59.5514 89.6504 59.5449H90.9492V58.9395C90.9492 58.4512 90.8223 58.0605 90.5684 57.7676C90.321 57.4746 89.9271 57.3281 89.3867 57.3281C88.9115 57.3281 88.5371 57.4421 88.2637 57.6699C87.9967 57.8978 87.8633 58.2103 87.8633 58.6074H85.041C85.041 57.9954 85.2298 57.429 85.6074 56.9082C85.985 56.3874 86.5189 55.9805 87.209 55.6875C87.8991 55.388 88.6738 55.2383 89.5332 55.2383C90.8353 55.2383 91.8672 55.5671 92.6289 56.2246C93.3971 56.8757 93.7812 57.7936 93.7812 58.9785V63.5586C93.7878 64.5612 93.9277 65.3197 94.2012 65.834V66H91.3496ZM89.0156 64.0371C89.4323 64.0371 89.8164 63.946 90.168 63.7637C90.5195 63.5749 90.7799 63.3242 90.9492 63.0117V61.1953H89.8945C88.4818 61.1953 87.7298 61.6836 87.6387 62.6602L87.6289 62.8262C87.6289 63.1777 87.7526 63.4674 88 63.6953C88.2474 63.9232 88.5859 64.0371 89.0156 64.0371ZM100.344 63.9199C100.865 63.9199 101.288 63.7767 101.613 63.4902C101.939 63.2038 102.108 62.8229 102.121 62.3477H104.768C104.761 63.0638 104.566 63.7214 104.182 64.3203C103.798 64.9128 103.27 65.375 102.6 65.707C101.936 66.0326 101.2 66.1953 100.393 66.1953C98.8822 66.1953 97.6908 65.7168 96.8184 64.7598C95.946 63.7962 95.5098 62.4681 95.5098 60.7754V60.5898C95.5098 58.9622 95.9427 57.6634 96.8086 56.6934C97.6745 55.7233 98.8626 55.2383 100.373 55.2383C101.695 55.2383 102.753 55.6159 103.547 56.3711C104.348 57.1198 104.755 58.1191 104.768 59.3691H102.121C102.108 58.8223 101.939 58.3796 101.613 58.041C101.288 57.696 100.858 57.5234 100.324 57.5234C99.6667 57.5234 99.1686 57.7643 98.8301 58.2461C98.498 58.7214 98.332 59.4961 98.332 60.5703V60.8633C98.332 61.9505 98.498 62.7318 98.8301 63.207C99.1621 63.6823 99.6667 63.9199 100.344 63.9199ZM110.217 61.7617L109.201 62.7773V66H106.379V51H109.201V59.3105L109.748 58.6074L112.453 55.4336H115.842L112.023 59.8379L116.174 66H112.932L110.217 61.7617ZM122.229 66V51.7812H126.604C127.854 51.7812 128.97 52.0645 129.953 52.6309C130.943 53.1908 131.714 53.9915 132.268 55.0332C132.821 56.0684 133.098 57.2467 133.098 58.5684V59.2227C133.098 60.5443 132.824 61.7194 132.277 62.748C131.737 63.7767 130.972 64.5742 129.982 65.1406C128.993 65.707 127.876 65.9935 126.633 66H122.229ZM125.158 54.1543V63.6465H126.574C127.72 63.6465 128.596 63.2721 129.201 62.5234C129.807 61.7747 130.116 60.7038 130.129 59.3105V58.5586C130.129 57.1133 129.829 56.0195 129.23 55.2773C128.632 54.5286 127.756 54.1543 126.604 54.1543H125.158ZM139.914 66.1953C138.365 66.1953 137.102 65.7201 136.125 64.7695C135.155 63.819 134.67 62.5527 134.67 60.9707V60.6973C134.67 59.6361 134.875 58.6888 135.285 57.8555C135.695 57.0156 136.275 56.3711 137.023 55.9219C137.779 55.4661 138.638 55.2383 139.602 55.2383C141.047 55.2383 142.183 55.694 143.01 56.6055C143.843 57.5169 144.26 58.8092 144.26 60.4824V61.6348H137.531C137.622 62.3249 137.896 62.8783 138.352 63.2949C138.814 63.7116 139.396 63.9199 140.1 63.9199C141.187 63.9199 142.036 63.526 142.648 62.7383L144.035 64.291C143.612 64.89 143.039 65.3587 142.316 65.6973C141.594 66.0293 140.793 66.1953 139.914 66.1953ZM139.592 57.5234C139.032 57.5234 138.576 57.7122 138.225 58.0898C137.88 58.4674 137.658 59.0078 137.561 59.7109H141.486V59.4863C141.473 58.8613 141.304 58.3796 140.979 58.041C140.653 57.696 140.191 57.5234 139.592 57.5234ZM149.689 62.5527L151.652 55.4336H154.602L151.037 66H148.342L144.777 55.4336H147.727L149.689 62.5527ZM160.578 66.1953C159.029 66.1953 157.766 65.7201 156.789 64.7695C155.819 63.819 155.334 62.5527 155.334 60.9707V60.6973C155.334 59.6361 155.539 58.6888 155.949 57.8555C156.359 57.0156 156.939 56.3711 157.688 55.9219C158.443 55.4661 159.302 55.2383 160.266 55.2383C161.711 55.2383 162.847 55.694 163.674 56.6055C164.507 57.5169 164.924 58.8092 164.924 60.4824V61.6348H158.195C158.286 62.3249 158.56 62.8783 159.016 63.2949C159.478 63.7116 160.061 63.9199 160.764 63.9199C161.851 63.9199 162.701 63.526 163.312 62.7383L164.699 64.291C164.276 64.89 163.703 65.3587 162.98 65.6973C162.258 66.0293 161.457 66.1953 160.578 66.1953ZM160.256 57.5234C159.696 57.5234 159.24 57.7122 158.889 58.0898C158.544 58.4674 158.322 59.0078 158.225 59.7109H162.15V59.4863C162.137 58.8613 161.968 58.3796 161.643 58.041C161.317 57.696 160.855 57.5234 160.256 57.5234ZM169.514 66H166.682V51H169.514V66ZM171.408 60.6191C171.408 59.571 171.61 58.6367 172.014 57.8164C172.417 56.9961 172.997 56.3613 173.752 55.9121C174.514 55.4629 175.396 55.2383 176.398 55.2383C177.824 55.2383 178.986 55.6745 179.885 56.5469C180.79 57.4193 181.294 58.6042 181.398 60.1016L181.418 60.8242C181.418 62.4453 180.965 63.7474 180.061 64.7305C179.156 65.707 177.941 66.1953 176.418 66.1953C174.895 66.1953 173.677 65.707 172.766 64.7305C171.861 63.7539 171.408 62.4258 171.408 60.7461V60.6191ZM174.23 60.8242C174.23 61.8268 174.419 62.5951 174.797 63.1289C175.174 63.6562 175.715 63.9199 176.418 63.9199C177.102 63.9199 177.635 63.6595 178.02 63.1387C178.404 62.6113 178.596 61.7715 178.596 60.6191C178.596 59.6361 178.404 58.8743 178.02 58.334C177.635 57.7936 177.095 57.5234 176.398 57.5234C175.708 57.5234 175.174 57.7936 174.797 58.334C174.419 58.8678 174.23 59.6979 174.23 60.8242ZM192.668 60.8145C192.668 62.4421 192.297 63.7474 191.555 64.7305C190.819 65.707 189.823 66.1953 188.566 66.1953C187.499 66.1953 186.636 65.8242 185.979 65.082V70.0625H183.156V55.4336H185.773L185.871 56.4688C186.555 55.6484 187.447 55.2383 188.547 55.2383C189.849 55.2383 190.861 55.7201 191.584 56.6836C192.307 57.6471 192.668 58.9753 192.668 60.668V60.8145ZM189.846 60.6094C189.846 59.6263 189.67 58.8678 189.318 58.334C188.973 57.8001 188.469 57.5332 187.805 57.5332C186.919 57.5332 186.311 57.8717 185.979 58.5488V62.875C186.324 63.5716 186.939 63.9199 187.824 63.9199C189.172 63.9199 189.846 62.8164 189.846 60.6094ZM199.289 66.1953C197.74 66.1953 196.477 65.7201 195.5 64.7695C194.53 63.819 194.045 62.5527 194.045 60.9707V60.6973C194.045 59.6361 194.25 58.6888 194.66 57.8555C195.07 57.0156 195.65 56.3711 196.398 55.9219C197.154 55.4661 198.013 55.2383 198.977 55.2383C200.422 55.2383 201.558 55.694 202.385 56.6055C203.218 57.5169 203.635 58.8092 203.635 60.4824V61.6348H196.906C196.997 62.3249 197.271 62.8783 197.727 63.2949C198.189 63.7116 198.771 63.9199 199.475 63.9199C200.562 63.9199 201.411 63.526 202.023 62.7383L203.41 64.291C202.987 64.89 202.414 65.3587 201.691 65.6973C200.969 66.0293 200.168 66.1953 199.289 66.1953ZM198.967 57.5234C198.407 57.5234 197.951 57.7122 197.6 58.0898C197.255 58.4674 197.033 59.0078 196.936 59.7109H200.861V59.4863C200.848 58.8613 200.679 58.3796 200.354 58.041C200.028 57.696 199.566 57.5234 198.967 57.5234ZM211.184 58.0801C210.799 58.028 210.461 58.002 210.168 58.002C209.1 58.002 208.4 58.3633 208.068 59.0859V66H205.246V55.4336H207.912L207.99 56.6934C208.557 55.7233 209.341 55.2383 210.344 55.2383C210.656 55.2383 210.949 55.2806 211.223 55.3652L211.184 58.0801Z" fill="#219FE7"/>
</svg>
